<svg id="Layer_1" data-name="Layer 1" xmlns="http://www.w3.org/2000/svg" viewBox="0 0 566.93 226.77"><defs><style>.cls-1{fill:#002554;}</style></defs><path class="cls-1" d="M23.21,135.83c-4.12,0-4.12-6.49,0-6.49h2.37V66.83H23.21c-4.12,0-4.12-6.49,0-6.49H51.84C63,60.34,73,69.3,73,80.73,73,92,63.07,96.8,63.07,96.8c7.82,2.78,14.41,9,14.62,18,.41,10.81-9.37,21.21-20.7,21Zm8.86-41H51.33c9.06,0,15.24-6.39,15.24-14.11,0-7.93-7.21-13.9-14.93-13.9H32.07Zm0,6.59v27.91H57c7.83-.41,14.32-6.28,14.32-14.11a13.67,13.67,0,0,0-4.23-9.78c-4.32-4-10.3-4-15.86-4Z"/><path class="cls-1" d="M102.82,129.34h.82c4.22,0,4.22,6.49,0,6.49H95.51c-4.23,0-4.23-6.49,0-6.49h.82V66.83h-.82c-4.23,0-4.23-6.49,0-6.49h8.13c4.22,0,4.22,6.49,0,6.49h-.82Z"/><path class="cls-1" d="M128.15,135.83c-3.81,0-3.81-6.49,0-6.49h1.44V66.83h-.92c-4.12,0-4.12-6.49,0-6.49h8.24c4.12,0,4.12,6.49,0,6.49h-.83v62.51h33.47V127.9c0-4.12,6.49-4.12,6.49,0v4.63a3.08,3.08,0,0,1-3.09,3.3Z"/><path class="cls-1" d="M202,135.83c-4.12,0-4.12-6.49,0-6.49h1.86V66.83h-20.7v1.44c0,4.12-6.49,4.12-6.49,0V63.64a3.11,3.11,0,0,1,3.19-3.3h54.58a3.08,3.08,0,0,1,3.09,3.3v4.63c0,4.12-6.49,4.12-6.49,0V66.83h-20.7v62.51h1.86c4.22,0,4.22,6.49,0,6.49Z"/><path class="cls-1" d="M264.09,94.84c-5-5.15-9.06-10-9.06-17.4,0-8.86,7.41-17.1,16.48-17.1s16.58,6.08,16.58,16.79c0,9-8,13.9-14.93,18.64l17.71,20.59a30.05,30.05,0,0,0,2.78-12.87h-2.47a2.77,2.77,0,0,1-3.09-2.88,2.84,2.84,0,0,1,3.09-3h9.88a2.87,2.87,0,0,1,3.2,3c0,1.64-1,2.88-3.2,2.88H299a37.82,37.82,0,0,1-4.12,17.71l6.9,8.14H306c4.22,0,4.22,6.49,0,6.49h-4.12c-.62,0-2.68.2-4.84-2.37L291,126.35a25.22,25.22,0,0,1-20.08,9.48c-10.2,0-21.94-6-21.94-18.85C249,106.48,256,100.19,264.09,94.84Zm6.8,34.81c4.84,0,12.25-1.24,16.48-7.83L268.21,99c-7.1,4.32-13.08,9.06-13.08,18C255.13,123.78,261.83,129.65,270.89,129.65Zm-9.68-52.21c0,7.31,7.93,13.9,7.93,13.9s12.77-6.49,12.77-14.21-5.36-10.61-10.4-10.61A10.77,10.77,0,0,0,261.21,77.44Z"/><path class="cls-1" d="M329,135.83c-4.12,0-4.12-6.49,0-6.49h2.37V66.83H329c-4.12,0-4.12-6.49,0-6.49H357.6c11.12,0,21.11,9,21.11,20.39,0,11.23-9.88,16.07-9.88,16.07,7.82,2.78,14.41,9,14.62,18,.41,10.81-9.37,21.21-20.7,21Zm8.86-41h19.26c9.06,0,15.24-6.39,15.24-14.11,0-7.93-7.21-13.9-14.93-13.9H337.83Zm0,6.59v27.91h24.92c7.83-.41,14.32-6.28,14.32-14.11a13.67,13.67,0,0,0-4.23-9.78c-4.32-4-10.3-4-15.86-4Z"/><path class="cls-1" d="M411.36,115.13l-5.56,14.21h.51c4.12,0,4.12,6.49,0,6.49h-8.75c-4.12,0-4.12-6.49,0-6.49h1.34l24.3-62.51c-3.4-.72-3.19-6.49.72-6.49h8.14c3.91,0,4.22,5.77.72,6.49l24.41,62.51h1.23c4.12,0,4.12,6.49,0,6.49h-8.65c-4.22,0-4.22-6.49,0-6.49h.41l-5.56-14.21Zm2.57-6.49h28.22L428,72.39Z"/><path class="cls-1" d="M475.72,98.13c0,16.79,13.5,31.93,30.49,31.31,8.24,0,15.45-3.71,21.21-9.47A3.17,3.17,0,1,1,532,124.4a35.25,35.25,0,0,1-26,11.43c-20.39,0-36.66-17.1-36.66-37.7s17.1-37.79,36.77-37.79c7.2,0,15.44,3.09,18.43,7.52l-.1-4.53a2.8,2.8,0,0,1,3.09-2.89,2.89,2.89,0,0,1,3.19,2.89v15c0,1.65-.83,3.4-2.89,3.4A2.79,2.79,0,0,1,525,79v-.82c-.1-5.26-5.87-11.43-18.84-11.43C489.63,66.73,475.72,81,475.72,98.13Z"/><path class="cls-1" d="M555,131.81a4.07,4.07,0,1,1-4.12-4.22A4.19,4.19,0,0,1,555,131.81Z"/><path class="cls-1" d="M144.63,164.55a6.56,6.56,0,0,1-4.73,1.85c-4.62,0-6.57-3.18-6.59-6.42a6.26,6.26,0,0,1,6.59-6.55,6.43,6.43,0,0,1,4.57,1.9l-1.57,1.51a4.24,4.24,0,0,0-3-1.17,4.07,4.07,0,0,0-4.28,4.31,4,4,0,0,0,4.28,4.21,4.57,4.57,0,0,0,3.13-1.26Z"/><path class="cls-1" d="M166.68,160c0,3.21-2,6.43-6.38,6.43s-6.39-3.15-6.39-6.42,2.1-6.55,6.39-6.55A6.19,6.19,0,0,1,166.68,160Zm-10.46.05c.05,2,1.15,4.23,4.08,4.23s4-2.21,4.07-4.25-1.14-4.44-4.07-4.44S156.17,157.92,156.22,160Z"/><path class="cls-1" d="M185.09,153.66h2.35v12.45H186v0l-6.54-8.4v8.38H177.1V153.68H179l6.09,7.71Z"/><path class="cls-1" d="M206,156.68A3.56,3.56,0,0,0,203,155.3c-1.74,0-2.57.72-2.57,1.65,0,1.08,1.28,1.38,2.77,1.56,2.59.32,5,1,5,4,0,2.77-2.45,4-5.22,4-2.54,0-4.5-.78-5.42-3.05l1.95-1a3.55,3.55,0,0,0,3.5,2c1.48,0,2.86-.52,2.86-1.87,0-1.17-1.23-1.65-2.88-1.83-2.54-.3-4.88-1-4.88-3.76,0-2.56,2.52-3.61,4.81-3.63,1.94,0,3.94.55,4.89,2.47Z"/><path class="cls-1" d="M229.46,153.7v7.12c0,3.68-2.25,5.56-5.38,5.56a5.19,5.19,0,0,1-5.52-5.56V153.7h2.33v7.12c0,2.24,1.27,3.43,3.21,3.43s3-1.3,3-3.43V153.7Z"/><path class="cls-1" d="M242.62,153.68V164H249v2.16h-8.74V153.68Z"/><path class="cls-1" d="M260.55,155.81h-3.94v-2.13h10.23v2.13H262.9v10.3h-2.35Z"/><path class="cls-1" d="M276.8,166.11V153.68h2.33v12.43Z"/><path class="cls-1" d="M298,153.66h2.34v12.45h-1.45v0l-6.54-8.4v8.38H290V153.68h1.9l6.09,7.71Z"/><path class="cls-1" d="M320.27,156.72a4.78,4.78,0,0,0-3.16-1.25c-2.67,0-4.28,2-4.28,4.59a3.93,3.93,0,0,0,4.28,4.15,4.14,4.14,0,0,0,2.8-1V161h-3.18v-2.09h5.33v5.24a6.19,6.19,0,0,1-4.95,2.24c-4.67,0-6.57-3.08-6.57-6.34,0-3.5,2.18-6.74,6.57-6.74a6.54,6.54,0,0,1,4.61,1.9Z"/><path class="cls-1" d="M353.84,156.72a4.74,4.74,0,0,0-3.16-1.25c-2.66,0-4.28,2-4.28,4.59a3.93,3.93,0,0,0,4.28,4.15,4.14,4.14,0,0,0,2.81-1V161h-3.18v-2.09h5.33v5.24a6.21,6.21,0,0,1-5,2.24c-4.67,0-6.57-3.08-6.57-6.34,0-3.5,2.19-6.74,6.57-6.74a6.58,6.58,0,0,1,4.62,1.9Z"/><path class="cls-1" d="M376.93,166.11h-2.79L370.52,162h-2.26v4.15h-2.34V153.66l5.91,0c2.93,0,4.48,2,4.48,4.12a3.7,3.7,0,0,1-3.15,3.91l3.77,4.24Zm-8.67-10.25v4h3.57a2,2,0,1,0,0-4Z"/><path class="cls-1" d="M398.63,160c0,3.21-2,6.43-6.38,6.43s-6.39-3.15-6.39-6.42,2.09-6.55,6.39-6.55A6.19,6.19,0,0,1,398.63,160Zm-10.47.05c.06,2,1.16,4.23,4.09,4.23s4-2.21,4.07-4.25-1.14-4.44-4.07-4.44S388.11,157.92,388.16,160Z"/><path class="cls-1" d="M419.77,153.7v7.12c0,3.68-2.25,5.56-5.38,5.56a5.19,5.19,0,0,1-5.52-5.56V153.7h2.32v7.12c0,2.24,1.28,3.43,3.22,3.43s3-1.3,3-3.43V153.7Z"/><path class="cls-1" d="M436.44,162.45h-3.51v3.66h-2.35V153.68l5.86,0A4.4,4.4,0,1,1,436.44,162.45Zm-3.51-2.15h3.51a2.2,2.2,0,1,0,0-4.4h-3.51Z"/></svg>